<mxfile host="app.diagrams.net" modified="2024-01-22T09:59:19.417Z" agent="Mozilla/5.0 (Windows NT 10.0; Win64; x64) AppleWebKit/537.36 (KHTML, like Gecko) Chrome/120.0.0.0 Safari/537.36 Edg/120.0.0.0" etag="QbXzHCQGF4fInJyLrh6E" version="22.1.21" type="github">
  <diagram name="Страница — 1" id="7cVC4033R59nfsd6GLfS">
    <mxGraphModel dx="660" dy="378" grid="1" gridSize="10" guides="1" tooltips="1" connect="1" arrows="1" fold="1" page="1" pageScale="1" pageWidth="827" pageHeight="1169" math="0" shadow="0">
      <root>
        <mxCell id="0" />
        <mxCell id="1" parent="0" />
        <mxCell id="XCuiDT0dXmc1CSkEculL-1" value="m,n &amp;gt; 0&lt;br&gt;pokaz - список длиной n" style="rounded=1;whiteSpace=wrap;html=1;" vertex="1" parent="1">
          <mxGeometry x="350" y="380" width="120" height="60" as="geometry" />
        </mxCell>
      </root>
    </mxGraphModel>
  </diagram>
</mxfile>
